<?xml version="1.0" standalone="no"?>
<!DOCTYPE svg PUBLIC "-//W3C//DTD SVG 20010904//EN"
 "http://www.w3.org/TR/2001/REC-SVG-20010904/DTD/svg10.dtd">
<svg version="1.0" xmlns="http://www.w3.org/2000/svg"
 width="46.000000pt" height="46.000000pt" viewBox="0 0 46.000000 46.000000"
 preserveAspectRatio="xMidYMid meet">
<metadata>
Created by potrace 1.16, written by Peter Selinger 2001-2019
</metadata>
<g transform="translate(0.000000,46.000000) scale(0.100000,-0.100000)"
fill="#000000" stroke="none">
<path d="M99 361 c-28 -28 -29 -33 -29 -121 l0 -92 39 -39 39 -39 92 0 c88 0
93 1 121 29 28 28 29 33 29 121 l0 92 -39 39 -39 39 -92 0 c-88 0 -93 -1 -121
-29z m233 -9 c21 -20 23 -32 23 -112 0 -80 -2 -92 -23 -112 -20 -21 -32 -23
-112 -23 -80 0 -92 2 -112 23 -19 19 -23 35 -26 100 -5 127 23 155 150 150 65
-3 81 -7 100 -26z"/>
</g>
</svg>
